<svg width="1100" height="1435" xmlns="http://www.w3.org/2000/svg" xmlns:svg="http://www.w3.org/2000/svg" xmlns:xlink="http://www.w3.org/1999/xlink">
 <!-- Created with SVG-edit - http://svg-edit.googlecode.com/ 
http://i.imgur.com/CKWe0M9.png

  <image x="2" y="1" width="1093" height="1431" id="svg_1" xlink:href="http://i.imgur.com/ArXl22P.png"/>
-->

 <style>
.booth {
  stroke-linecap: null;
  stroke-linejoin: null;
  stroke-dasharray: null;
  stroke-width: 5;
  stroke: #000000;
  fill: #FF0000;
}

.wall {
  stroke: #000000;
  stroke-linecap: null;
  stroke-linejoin: null;
  stroke-dasharray: null;
  stroke-width: 5;
  fill: none;
}

 </style>
 <g>
  <title>img</title>
  <image x="2" y="1" width="1093" height="1431" id="svg_1" xlink:href="http://i.imgur.com/ArXl22P.png"/>
 </g>
 <g>
  <title>booths</title>
  <rect id="svg_3" height="69" width="24" y="170" x="40" class="booth"/>
  <rect id="svg_4" height="69" width="24" y="277" x="39" class="booth"/>
  <rect id="svg_5" height="59" width="21" y="377" x="42" class="booth"/>
  <rect id="svg_6" height="69" width="21" y="460" x="42" class="booth"/>
  <rect id="svg_7" height="65" width="23" y="582" x="38" class="booth"/>
  <rect id="svg_8" height="57" width="25" y="227" x="266" class="booth"/>
  <rect id="svg_9" height="66" width="31" y="223" x="315" class="booth"/>
  <rect id="svg_10" height="64" width="24" y="312" x="265" class="booth"/>
  <rect id="svg_11" height="69" width="27" y="314" x="318" class="booth"/>
  <rect id="svg_12" height="65" width="25" y="410" x="262" class="booth"/>
  <rect id="svg_13" height="62" width="31" y="411" x="317" class="booth"/>
  <rect id="svg_14" height="21" width="74" y="38" x="319" class="booth"/>
  <rect id="svg_15" height="32" width="62" y="34" x="524" class="booth"/>
  <rect id="svg_16" height="29" width="64" y="37" x="654" class="booth"/>
  <rect id="svg_17" height="69" width="20" y="201" x="770" class="booth"/>
  <rect id="svg_18" height="69" width="20" y="201.5" x="826.5" class="booth"/>
  <rect id="svg_20" height="69" width="20" y="313.5" x="770.5" class="booth"/>
  <rect id="svg_21" height="69" width="20" y="312.5" x="826.5" class="booth"/>
  <rect id="svg_22" height="69" width="20" y="408.5" x="772.5" class="booth"/>
  <rect id="svg_23" height="69" width="20" y="405.5" x="824.5" class="booth"/>
  <rect id="svg_24" height="69" width="20" y="160.5" x="1034.5" class="booth"/>
  <rect stroke="dodgerblue" id="svg_25" height="69" width="20" y="258.510283" x="1035.343193" class="booth"/>
  <rect id="svg_26" height="69" width="20" y="354.407455" x="1035.886955" class="booth"/>
  <rect id="svg_27" height="69" width="20" y="444.381737" x="1034.60154" class="booth"/>
  <rect id="svg_28" height="69" width="20" y="558.777626" x="1033.316185" class="booth"/>
  <rect id="svg_29" height="69" width="20" y="260.577089" x="489.614418" class="booth"/>
  <rect id="svg_30" height="69" width="20" y="260.577124" x="546.169655" class="booth"/>
  <rect id="svg_31" height="69" width="20" y="374.973022" x="488.329018" class="booth"/>
  <rect id="svg_32" height="69" width="20" y="377.543716" x="544.884315" class="booth"/>
  <rect transform="rotate(36.501495361328125 986.5466918945312,67.99913024902348) " id="svg_33" height="21" width="74" y="57.499125" x="949.546715" class="booth"/>
  <rect id="svg_34" transform="rotate(-52.431358337402344 69.66583251953124,85.13708496093749) " height="21" width="74" y="74.637084" x="32.665834" class="booth"/>
  <rect id="svg_35" height="21" width="74" y="751.586578" x="66.941723" class="booth"/>
  <rect id="svg_36" height="21" width="74" y="749.872803" x="301.731791" class="booth"/>
  <rect id="svg_37" height="21" width="74" y="772.15213" x="634.208242" class="booth"/>
  <rect transform="rotate(-42.87874984741211 1005.3984375000001,762.0866088867186) " id="svg_38" height="21" width="74" y="751.586598" x="968.398448" class="booth"/>
  <rect id="svg_39" height="21" width="74" y="874.979885" x="277.73863" class="booth"/>
  <rect id="svg_40" height="21" width="74" y="847.559143" x="18.955404" class="booth"/>
  <rect id="svg_41" height="21" width="74" y="845.845352" x="675.339346" class="booth"/>
  <rect id="svg_42" height="21" width="74" y="972.666264" x="202.331594" class="booth"/>
  <rect id="svg_43" height="21" width="74" y="976.093857" x="317.155943" class="booth"/>
  <rect id="svg_44" height="21" width="74" y="977.807652" x="582.794348" class="booth"/>
  <rect id="svg_45" height="21" width="74" y="977.807652" x="709.615255" class="booth"/>
  <rect id="svg_46" height="21" width="74" y="979.521446" x="841.577566" class="booth"/>
  <rect id="svg_47" height="21" width="74" y="842.417758" x="968.398468" class="booth"/>
  <rect id="svg_48" height="21" width="74" y="977.807652" x="961.543295" class="booth"/>
  <rect id="svg_49" height="21" width="74" y="1049.787086" x="745.604971" class="booth"/>
  <rect transform="rotate(-89.99996948242188 258.18334960937506,1207.673583984375) " id="svg_50" height="21" width="74" y="1197.173557" x="221.183371" class="booth"/>
  <rect transform="rotate(-35.166343688964844 273.60754394531267,1062.0008544921875) " id="svg_51" height="21" width="74" y="1051.500836" x="236.607526" class="booth"/>
  <rect transform="rotate(87.83900451660156 876.8637695312499,1195.6768798828125) " id="svg_52" height="21" width="74" y="1185.176936" x="839.86376" class="booth"/>
  <rect id="svg_53" transform="rotate(87.83900451660156 575.2356567382812,1212.81494140625) " height="21" width="74" y="1202.314967" x="538.235647" class="booth"/>
  <rect transform="rotate(-91.9415054321289 486.1182556152346,1214.5286865234377) " id="svg_54" height="21" width="74" y="1204.028702" x="449.118246" class="booth"/>
  <rect transform="rotate(55.244117736816406 280.4627075195319,1365.3427734374998) " id="svg_55" height="21" width="74" y="1354.842739" x="243.462708" class="booth"/>
  <rect transform="rotate(-47.174739837646484 816.8809204101564,1346.4909667968748) " id="svg_56" height="21" width="74" y="1335.990982" x="779.880911" class="booth"/>
  


 
 </g>
 <g>
  <title>walls</title>
  <line id="svg_59" y2="2.874841" x2="197.343665" y1="38.864557" x1="224.764404" class="wall"/>
  <line id="svg_60" y2="3.731744" x2="446.700961" y1="39.72146" x1="474.1217" class="wall"/>
  <line id="svg_61" y2="792.077996" x2="256.469585" y1="828.067713" x1="283.890323" class="wall"/>
  <line id="svg_62" y2="792.077996" x2="456.983745" y1="828.067713" x1="484.404483" class="wall"/>
  <line id="svg_63" y2="792.077996" x2="630.077159" y1="828.067713" x1="657.497897" class="wall"/>
  <line id="svg_64" y2="2.017999" x2="774.036022" y1="38.007715" x1="801.45676" class="wall"/>
  <line id="svg_65" y2="7.159346" x2="278.748928" y1="43.149063" x1="247.900614" class="wall"/>
  <line id="svg_66" y2="790.36421" x2="227.335037" y1="826.353927" x1="196.486723" class="wall"/>
  <line id="svg_67" y2="795.505598" x2="432.990574" y1="831.495315" x1="402.14226" class="wall"/>
  <line id="svg_68" y2="2.017989" x2="528.963169" y1="38.007705" x1="498.114855" class="wall"/>
  <line id="svg_69" y2="3.731764" x2="863.153385" y1="39.721481" x1="832.305071" class="wall"/>
  <line id="svg_70" y2="792.077986" x2="599.228764" y1="828.067703" x1="568.38045" class="wall"/>
  <line id="svg_71" y2="1018.299063" x2="448.414768" y1="1054.28878" x1="417.566454" class="wall"/>
  <line id="svg_72" y2="1395.334158" x2="391.859455" y1="1431.323875" x1="361.011141" class="wall"/>
  <line id="svg_73" y2="1393.620474" x2="655.784062" y1="1429.610191" x1="624.935748" class="wall"/>
  <line id="svg_74" y2="1018.299073" x2="573.521861" y1="1054.28879" x1="600.9426" class="wall"/>
  <line id="svg_75" y2="1391.906617" x2="703.770366" y1="1427.896334" x1="731.191104" class="wall"/>
  <line id="svg_76" y2="1390.192811" x2="420.993999" y1="1426.182528" x1="448.414737" class="wall"/>

  <path id="svg_58" d="m7.112296,825.497009l-0.257112,-822.069417l1084.832926,-1.713796l0,824.335887l-205.655579,-1.713806l15.424194,-34.275879l-130.248474,0l17.137939,35.989685l-781.233896,-0.552673z" stroke-linecap="null" stroke-linejoin="null" stroke-dasharray="null" stroke-width="5" stroke="dodgerblue" fill="none"/>

  <path id="svg_77" d="m452.69928,1019.155945l-221.336807,-1.161072l0,406.169678l675.235672,0l0,-411.311096l-339.331665,-1.713806l34.27594,46.272461l-186.803772,-1.713745l37.960632,-36.542419z" stroke-linecap="null" stroke-linejoin="null" stroke-dasharray="null" stroke-width="5" stroke="hotpink" fill="none"/>

  <text stroke="#000000" transform="matrix(1.1191343069076538,0,0,1,-33.64427286013961,0) " xml:space="preserve" text-anchor="middle" font-family="serif" font-size="24" id="svg_78" y="868.341882" x="368.723276" stroke-linecap="null" stroke-linejoin="null" stroke-dasharray="null" stroke-width="0" fill="#000000">Northshore Room</text>
  <text id="svg_79" stroke="#000000" transform="matrix(1.1191343069076536,0,0,1,178.0052632726729,0.7601555585861206) " xml:space="preserve" text-anchor="middle" font-family="serif" font-size="24" y="1103.131952" x="359.535124" stroke-linecap="null" stroke-linejoin="null" stroke-dasharray="null" stroke-width="0" fill="#000000">Lakeshore Room</text>
 </g>
</svg>