




<svg width="1100" height="1435" xmlns="http://www.w3.org/2000/svg" xmlns:svg="http://www.w3.org/2000/svg" xmlns:xlink="http://www.w3.org/1999/xlink">


 <style>
.booth {
  stroke-linecap: null;
  stroke-linejoin: null;
  stroke-dasharray: null;
  stroke-width: 5;
  stroke: #000000;
  fill: #FF0000;
}

.active {
  fill: cyan;
}

.wall {
  stroke: #000000;
  stroke-linecap: null;
  stroke-linejoin: null;
  stroke-dasharray: null;
  stroke-width: 5;
  fill: none;
}

 </style>
 <g>
  <title>img</title>
  <image x="2" y="1" width="1093" height="1431" id="svg_1" xlink:href="http://i.imgur.com/aYnjGza.png"/>
 </g>
 <g>
  <title>booths</title>

  <rect  id="hfz" transform="rotate(-35 273.60754394531267,1062.0008544921875) " height="21" width="74" y="1051.5" x="236.6" class="booth"/>
   <rect id="hydraforce" transform="rotate(55 280.4627075195319,1365.3427734374998) "  height="21" width="74" y="1355" x="243.4" class="booth"/>

  <rect id="google" height="21" width="74" y="1050" x="745.6" class="booth"/>

  <rect id="baxter"  transform="rotate(90 876.8637695312499,1195.6768798828125) " height="21" width="74" y="1185" x="840" class="booth"/>
  <rect id="gdeb" transform="rotate(-47 816.8809204101564,1346.4909667968748) " height="21" width="74" y="1336" x="780" class="booth"/>


  

  <rect id="booth32" height="69" width="20" y="558.777626" x="1033.316185" class="booth active"/>




  <rect id="pg" height="21" width="74" y="38" x="319" class="booth"/>

  <rect id="elanco" height="69" width="24" y="170" x="40" class="booth"/>

  <rect id="ida" height="65" width="23" y="582" x="38" class="booth"/>

 
  <rect id="booth45" height="69" width="21" y="460" x="42" class="booth"/>

 

  <rect id="booth60" height="69" width="20" y="201.5" x="826.5" class="booth"/>



  <rect id="booth37" transform="rotate(36.5 986.5466918945312,67.99913024902348) " height="21" width="74" y="57.5" x="950" class="booth"/>
  <rect id="booth41" transform="rotate(-52.4 69.66583251953124,85.13708496093749) " height="21" width="74" y="74.6" x="32.6" class="booth"/>

  <rect id="allstate" height="21" width="74" y="750" x="302" class="booth"/>

  <rect id="booth30" height="21" width="74" y="772" x="634" class="booth active"/>

  <rect id="booth31" transform="rotate(-42.8 1005.3984375000001,762.0866088867186) "  height="21" width="74" y="751.5" x="968" class="booth"/>



 
 </g>
 
  <path id="svg_58" d="m7.112296,825.497009l-0.257112,-822.069417l1084.832926,-1.713796l0,824.335887l-205.655579,-1.713806l15.424194,-34.275879l-130.248474,0l17.137939,35.989685l-781.233896,-0.552673z" stroke-linecap="null" stroke-linejoin="null" stroke-dasharray="null" stroke-width="5" stroke="dodgerblue" fill="none"/>


 </g>
</svg>